{"accessors" : [{"bufferView" : 0, "byteOffset" : 0, "componentType" : 5123, "count" : 2952, "type" : "SCALAR", "max" : [795], "min" : [0]}, {"bufferView" : 1, "byteOffset" : 0, "componentType" : 5126, "count" : 796, "type" : "VEC3", "max" : [32.599998474121094, 183.10000610351562, 134.89999389648438], "min" : [-28.5, 0.800000011920929, -187.39999389648438], "name" : "POSITION"}, {"bufferView" : 1, "byteOffset" : 12, "componentType" : 5126, "count" : 796, "type" : "VEC3", "max" : [0.5225215554237366, 0.2846466898918152, 0.1473189890384674], "min" : [0.03968190774321556, 0.011645430698990822, 0.008540382608771324], "name" : "COLOR_0"}, {"bufferView" : 1, "byteOffset" : 24, "componentType" : 5126, "count" : 796, "type" : "VEC2", "max" : [0.9823520183563232, 1.9922120571136475], "min" : [0.0027099999133497477, 1.0050699710845947], "name" : "TEXCOORD_0"}], "asset" : {"generator" : "Aspose.3D 24.6.0", "version" : "2.0"}, "buffers" : [{"uri" : "data:application/octet-stream;base64,", "byteLength" : 31384}], "bufferViews" : [{"buffer" : 0, "byteOffset" : 0, "byteLength" : 5904, "target" : 34963}, {"buffer" : 0, "byteOffset" : 5908, "byteLength" : 25472, "byteStride" : 32, "target" : 34962}], "materials" : [{"pbrMetallicRoughness" : {"baseColorFactor" : [1, 1, 1, 1], "metallicFactor" : 0, "roughnessFactor" : 1}, "emissiveFactor" : [0, 0, 0], "alphaMode" : "OPAQUE", "doubleSided" : false}], "meshes" : [{"primitives" : [{"attributes" : {"POSITION" : 1, "COLOR_0" : 2, "TEXCOORD_0" : 3}, "indices" : 0, "material" : 0, "mode" : 4}]}], "nodes" : [{"mesh" : 0, "name" : "Node #0"}], "scene" : 0, "scenes" : [{"nodes" : [0]}]}